HIERARCHY
ROOT	Hips
{
	OFFSET	0.000	0.000	0.000
	CHANNELS	6	Xposition	Yposition	Zposition	Yrotation	Xrotation	Zrotation
	JOINT	Chest
	{
		OFFSET	0.000	10.049	-0.018
		CHANNELS	3	Yrotation	Xrotation	Zrotation
		JOINT	Chest2
		{
			OFFSET	-0.013	22.718	-0.005
			CHANNELS	3	Yrotation	Xrotation	Zrotation
			JOINT	LeftCollar
			{
				OFFSET	3.045	22.720	0.013
				CHANNELS	3	Yrotation	Xrotation	Zrotation
				JOINT	LeftShoulder
				{
					OFFSET	11.359	0.006	-0.000
					CHANNELS	3	Yrotation	Xrotation	Zrotation
					JOINT	LeftElbow
					{
						OFFSET	26.214	0.015	-0.001
						CHANNELS	3	Yrotation	Xrotation	Zrotation
						JOINT	LeftWrist
						{
							OFFSET	26.214	0.015	-0.001
							CHANNELS	3	Yrotation	Xrotation	Zrotation
							End Site
							{
								OFFSET	-0.000	-10.922	-0.006
							}
						}
					}
				}
			}
			JOINT	Neck
			{
				OFFSET	-0.013	22.718	0.008
				CHANNELS	3	Yrotation	Xrotation	Zrotation
				JOINT	Head
				{
					OFFSET	-0.004	6.553	0.004
					CHANNELS	3	Yrotation	Xrotation	Zrotation
					End Site
					{
						OFFSET	-0.012	20.534	-0.005
					}
				}
			}
			JOINT	RightCollar
			{
				OFFSET	-3.071	22.717	0.013
				CHANNELS	3	Yrotation	Xrotation	Zrotation
				JOINT	RightShoulder
				{
					OFFSET	-11.359	-0.006	0.000
					CHANNELS	3	Yrotation	Xrotation	Zrotation
					JOINT	RightElbow
					{
						OFFSET	-26.214	-0.015	0.001
						CHANNELS	3	Yrotation	Xrotation	Zrotation
						JOINT	RightWrist
						{
							OFFSET	-26.214	-0.015	0.001
							CHANNELS	3	Yrotation	Xrotation	Zrotation
							End Site
							{
								OFFSET	-0.000	-10.922	0.006
							}
						}
					}
				}
			}
		}
	}
	JOINT	LeftHip
	{
		OFFSET	8.738	-0.000	-0.000
		CHANNELS	3	Yrotation	Xrotation	Zrotation
		JOINT	LeftKnee
		{
			OFFSET	-0.000	-43.689	-0.035
			CHANNELS	3	Yrotation	Xrotation	Zrotation
			JOINT	LeftAnkle
			{
				OFFSET	-0.000	-43.689	-0.035
				CHANNELS	3	Yrotation	Xrotation	Zrotation
				End Site
				{
					OFFSET	-0.000	-10.059	12.924
				}
			}
		}
	}
	JOINT	RightHip
	{
		OFFSET	-8.738	0.000	0.000
		CHANNELS	3	Yrotation	Xrotation	Zrotation
		JOINT	RightKnee
		{
			OFFSET	-0.000	-43.689	-0.035
			CHANNELS	3	Yrotation	Xrotation	Zrotation
			JOINT	RightAnkle
			{
				OFFSET	-0.000	-43.689	-0.035
				CHANNELS	3	Yrotation	Xrotation	Zrotation
				End Site
				{
					OFFSET	-0.000	-10.059	12.924
				}
			}
		}
	}
}
MOTION
Frames:	13
Frame Time:	0.033
342.612	82.980	-211.684	106.029	356.890	7.132	2.654	36.497	358.513	2.654	36.497	358.513	345.609	335.280	11.455	3.754	343.736	271.974	335.885	29.456	355.121	9.845	305.000	99.114	335.428	341.884	15.243	335.428	341.884	15.243	13.522	329.253	342.961	1.745	340.367	93.687	25.789	349.892	356.545	6.888	16.521	257.548	9.530	308.717	0.674	342.367	43.422	349.333	356.731	350.564	351.671	350.658	333.869	9.133	1.302	66.062	350.973	357.107	326.500	352.315	
346.179	83.410	-214.015	104.586	356.948	7.137	2.849	36.223	358.732	2.849	36.223	358.732	345.650	335.815	10.911	4.509	346.762	270.083	338.951	33.359	356.402	8.378	307.202	91.352	335.374	341.715	15.005	335.374	341.715	15.005	12.751	328.954	343.275	2.708	337.945	93.661	27.477	350.557	356.337	6.826	17.131	257.562	11.620	309.136	358.347	350.403	34.728	353.644	354.732	354.092	347.279	352.604	336.399	7.370	3.143	66.465	353.410	356.693	324.910	352.613	
348.934	83.245	-215.675	103.168	357.074	6.589	3.226	35.979	359.171	3.226	35.979	359.171	345.883	336.395	10.183	5.259	349.433	268.377	339.612	35.568	357.670	6.452	308.501	88.241	335.384	341.463	15.040	335.384	341.463	15.040	12.983	329.205	342.717	2.950	336.948	93.719	28.749	351.381	356.292	6.732	17.933	257.694	14.681	310.018	356.122	350.890	27.801	353.926	353.608	354.473	343.328	353.928	338.130	6.921	3.669	67.650	354.545	356.698	323.521	352.422	
353.435	82.792	-218.185	101.130	357.292	5.958	4.026	35.774	359.711	4.026	35.774	359.711	345.973	336.962	9.188	5.799	351.670	266.972	342.643	38.594	358.858	1.910	310.211	84.288	335.185	341.120	15.133	335.185	341.120	15.133	12.607	328.998	342.373	3.892	336.693	93.660	31.656	352.238	355.893	6.496	18.587	257.641	19.509	312.266	351.968	346.907	19.535	354.290	354.251	352.425	341.030	355.464	340.842	5.545	6.821	67.638	358.427	357.400	322.816	351.669	
356.713	82.657	-219.921	98.634	357.751	5.655	4.638	35.519	359.734	4.638	35.519	359.734	346.192	337.580	8.355	6.400	353.534	265.637	343.371	39.731	0.326	0.022	311.570	81.397	335.313	340.914	14.934	335.313	340.914	14.934	12.916	329.133	341.699	4.050	336.594	93.635	32.876	352.686	356.117	6.447	18.611	257.648	21.263	313.301	350.975	345.499	17.727	355.492	354.898	351.108	340.041	357.185	342.421	4.453	9.239	68.527	1.348	358.557	322.899	350.592	
360.712	82.038	-221.476	96.747	358.198	5.619	4.844	35.301	359.441	4.844	35.301	359.441	346.480	337.955	7.948	6.944	354.815	264.634	345.460	40.702	1.374	356.919	312.503	79.870	335.101	340.885	15.147	335.101	340.885	15.147	12.725	329.016	341.772	4.332	336.771	93.467	33.934	352.958	356.579	6.641	18.669	257.688	21.479	314.544	350.881	341.426	18.648	354.338	357.375	353.386	342.165	358.093	343.763	3.233	12.136	69.044	4.252	359.584	323.705	349.675	
366.502	80.875	-223.886	94.101	358.388	5.595	4.955	35.103	358.839	4.955	35.103	358.839	346.668	338.270	8.477	7.657	357.039	262.763	346.730	41.017	2.687	354.961	313.438	77.313	335.076	341.035	15.288	335.076	341.035	15.288	13.227	328.981	341.538	3.797	337.832	93.606	35.230	353.192	357.174	6.357	18.747	257.658	18.993	313.679	352.826	342.004	23.267	354.325	358.920	358.378	341.268	359.355	346.153	1.592	15.958	70.205	7.446	0.854	325.942	349.565	
371.164	81.644	-224.612	93.520	358.567	6.053	4.725	35.211	358.437	4.725	35.211	358.437	346.181	337.808	9.439	6.939	357.773	261.792	348.294	41.403	3.821	352.881	312.478	77.494	334.193	341.120	16.134	334.193	341.120	16.134	12.663	328.446	341.831	3.945	338.545	93.352	35.592	352.984	357.340	6.271	18.694	257.624	7.046	309.000	1.902	349.387	32.571	351.737	358.564	357.589	341.840	0.963	346.210	0.586	17.019	71.892	9.175	1.273	334.785	352.291	
374.772	81.051	-225.072	92.222	358.512	6.391	4.721	35.429	358.083	4.721	35.429	358.083	346.104	337.618	9.850	4.761	357.190	261.730	348.804	40.468	4.381	352.079	312.204	77.421	333.814	341.095	16.504	333.814	341.095	16.504	13.047	328.617	341.480	3.399	339.286	92.720	35.433	352.289	357.497	6.036	18.338	257.413	8.926	309.554	1.638	345.962	37.024	348.541	358.938	358.872	342.629	3.847	344.396	359.263	20.862	76.174	14.817	2.611	343.801	355.439	
380.263	80.018	-225.239	91.216	358.237	6.309	4.801	35.595	358.148	4.801	35.595	358.148	346.304	337.569	9.644	3.701	356.255	262.592	347.850	40.593	4.110	352.420	312.916	77.942	333.469	341.275	16.634	333.469	341.275	16.634	13.079	328.623	341.501	3.520	339.866	92.178	34.745	351.682	357.437	6.020	18.025	257.300	15.842	311.296	355.832	341.594	39.439	348.281	357.746	359.966	346.127	5.651	342.158	358.806	26.137	79.941	21.656	5.008	0.226	359.169	
383.307	78.216	-224.812	91.200	357.457	6.081	4.552	35.967	358.684	4.552	35.967	358.684	345.917	336.918	10.326	3.492	354.924	263.741	345.952	38.739	2.466	355.840	312.767	79.053	333.240	341.502	16.625	333.240	341.502	16.625	12.967	328.441	341.331	2.688	340.794	91.951	32.671	351.000	357.558	6.114	17.324	257.026	17.119	312.406	354.767	342.406	46.092	349.392	354.923	355.177	347.707	7.339	337.840	358.009	66.536	82.591	64.730	3.363	12.968	6.357	
380.334	79.160	-225.167	90.595	357.236	6.419	4.275	36.187	358.558	4.275	36.187	358.558	346.017	336.630	10.458	3.122	353.348	264.842	343.735	36.074	1.920	1.801	310.218	80.718	332.886	341.785	16.953	332.886	341.785	16.953	12.836	328.596	341.641	2.665	341.067	91.120	31.355	350.390	357.572	6.284	17.262	257.041	16.196	313.469	355.515	343.772	48.892	349.789	354.510	352.069	348.016	7.158	334.825	357.657	97.076	83.776	94.684	0.248	6.214	6.853	
374.682	79.866	-225.335	89.418	357.064	6.478	4.413	36.417	358.625	4.413	36.417	358.625	346.004	336.627	10.231	2.944	351.175	266.412	342.091	33.550	0.912	6.432	307.696	82.726	332.733	341.804	17.102	332.733	341.804	17.102	12.849	328.826	341.645	2.109	341.493	90.562	29.836	349.756	357.322	6.268	17.281	256.873	16.777	314.628	355.585	342.389	51.001	348.726	355.482	349.776	348.812	5.216	331.891	358.708	106.818	84.007	103.053	357.777	0.223	3.569	
